Coordinates
version=1
nRows=32
nColumns=22
inDegrees=yes

Units are S.I. units (second, meters, Newtons, ...)
If the header above contains a line with 'inDegrees', this indicates whether rotational values are in degrees (yes) or radians (no).

endheader
time	pelvis_tilt	pelvis_list	pelvis_rotation	pelvis_tx	pelvis_ty	pelvis_tz	hip_flexion_r	hip_adduction_r	hip_rotation_r	knee_angle_r	ankle_angle_r	subtalar_angle_r	hip_flexion_l	hip_adduction_l	hip_rotation_l	knee_angle_l	ankle_angle_l	subtalar_angle_l	lumbar_extension	lumbar_bending	lumbar_rotation
      3.62000000	      4.94678123	     -0.20900840	     -7.39380315	      0.58489945	      0.92811541	      0.02780127	     21.02996491	     -0.60462899	     -3.55823304	    -34.23044030	     -2.34037538	      3.04518510	     -2.55253586	      0.91297581	    -14.14042316	    -19.87727172	     10.30219126	     -3.96805955	    -10.53878567	     -4.42275517	     -4.09072791
      3.63000000	      4.90496480	     -0.16806243	     -7.30775128	      0.59232172	      0.92735718	      0.02872693	     20.64316985	     -0.49096951	     -3.91582182	    -30.68134705	     -2.58503436	      3.19382911	     -2.99711680	      0.94485467	    -14.08913031	    -19.91233965	     10.66817560	     -3.89321011	    -10.45476673	     -4.48919791	     -4.13297123
      3.64000000	      4.89752224	     -0.09003151	     -7.23639970	      0.59973596	      0.92654574	      0.02975676	     20.16927750	     -0.38189730	     -4.15121117	    -27.14001864	     -2.81057249	      3.32987036	     -3.46112984	      1.01079441	    -14.05305978	    -19.97298865	     11.02366222	     -3.75489193	    -10.40256056	     -4.60344897	     -4.14960043
      3.65000000	      4.85096978	      0.00539354	     -7.16524911	      0.60716437	      0.92558383	      0.03085887	     19.71087609	     -0.26774301	     -4.30798011	    -23.68051658	     -3.08301565	      3.38888151	     -3.86345454	      1.07625409	    -14.04278321	    -20.07024780	     11.38158534	     -3.62525227	    -10.29358592	     -4.72524228	     -4.15136321
      3.66000000	      4.81046673	      0.12438346	     -7.09346127	      0.61460119	      0.92454143	      0.03202757	     19.23704401	     -0.16677070	     -4.35272581	    -20.36391880	     -3.35902122	      3.40406248	     -4.25492067	      1.15572726	    -14.04783192	    -20.19859815	     11.72986427	     -3.49942695	    -10.18310695	     -4.86866456	     -4.14452141
      3.67000000	      4.74404027	      0.26701045	     -7.02180633	      0.62206055	      0.92339201	      0.03324947	     18.80705246	     -0.08654781	     -4.28142024	    -17.26431173	     -3.67009107	      3.39411768	     -4.61140687	      1.24979767	    -14.05664734	    -20.33822646	     12.06684876	     -3.40142889	    -10.03113410	     -5.02674684	     -4.13239358
      3.68000000	      4.76462998	      0.40997039	     -6.93086915	      0.62953579	      0.92230306	      0.03450614	     18.30019202	     -0.03140972	     -4.09265754	    -14.42972013	     -3.86144291	      3.41421119	     -5.04424448	      1.34095723	    -14.05103529	    -20.51656453	     12.36802416	     -3.26807966	     -9.98375716	     -5.18984933	     -4.10735839
      3.69000000	      4.74671776	      0.56450243	     -6.83272607	      0.63704940	      0.92112245	      0.03578951	     17.88660704	     -0.00641451	     -3.79947020	    -11.94280721	     -4.06820627	      3.45749274	     -5.43484713	      1.43350126	    -14.02802084	    -20.69716971	     12.65989391	     -3.16532989	     -9.88249047	     -5.34618860	     -4.09706743
      3.70000000	      4.74478657	      0.71364831	     -6.71277855	      0.64457062	      0.91993517	      0.03709287	     17.51132336	     -0.00864208	     -3.41192854	     -9.84465280	     -4.20997842	      3.55381134	     -5.82753088	      1.51207173	    -13.95288753	    -20.90974802	     12.93274299	     -3.06884341	     -9.80649830	     -5.49060596	     -4.08057119
      3.71000000	      4.77512810	      0.84474463	     -6.57328556	      0.65211443	      0.91877365	      0.03839279	     17.16676445	     -0.03470301	     -2.95521275	     -8.18340338	     -4.25291685	      3.72921304	     -6.23645955	      1.56401158	    -13.83438368	    -21.16725872	     13.17463115	     -2.96941089	     -9.77526092	     -5.60244860	     -4.06661324
      3.72000000	      4.78748737	      0.97019200	     -6.42066794	      0.65969396	      0.91757995	      0.03970497	     16.92137201	     -0.08881699	     -2.45616334	     -6.99331916	     -4.25160368	      3.92205927	     -6.61768921	      1.60189202	    -13.66812244	    -21.44422786	     13.41542946	     -2.89100628	     -9.72251062	     -5.69331406	     -4.07530868
      3.73000000	      4.75398887	      1.08979579	     -6.22913979	      0.66724757	      0.91629705	      0.04103055	     16.82520405	     -0.16930673	     -1.95409495	     -6.31961523	     -4.11581338	      3.99376636	     -6.89494843	      1.60780111	    -13.41811406	    -21.82465976	     13.63969433	     -2.85337575	     -9.62983325	     -5.76714331	     -4.12413762
      3.74000000	      4.82580044	      1.16325880	     -6.09707143	      0.67489958	      0.91520336	      0.04246182	     16.65355676	     -0.22325822	     -1.39660002	     -6.02692723	     -4.12577947	      4.24121279	     -7.32649841	      1.59317364	    -13.16148460	    -22.15207304	     13.87726902	     -2.78878793	     -9.65190959	     -5.79564054	     -4.07184293
      3.75000000	      4.85061223	      1.21601029	     -5.91665602	      0.68255123	      0.91404004	      0.04390095	     16.60845229	     -0.27648628	     -0.91020160	     -6.17621103	     -4.05865708	      4.29815211	     -7.63267920	      1.52026007	    -12.87688687	    -22.62576767	     14.02748549	     -2.76481366	     -9.63038632	     -5.78383868	     -4.12016962
      3.76000000	      4.89532454	      1.24008429	     -5.76591387	      0.69027474	      0.91293220	      0.04545710	     16.59041980	     -0.29757864	     -0.47449757	     -6.66331968	     -4.09487355	      4.33873584	     -7.95686613	      1.42525485	    -12.55478852	    -23.12112426	     14.19076788	     -2.74684059	     -9.62344614	     -5.74447737	     -4.11153750
      3.77000000	      4.93004816	      1.21259491	     -5.62110738	      0.69808234	      0.91185326	      0.04712092	     16.61200372	     -0.25550335	     -0.15549499	     -7.41216331	     -4.22298881	      4.33627769	     -8.24358346	      1.26694641	    -12.22508846	    -23.68874470	     14.33180678	     -2.74285404	     -9.59674867	     -5.64585588	     -4.09890471
      3.78000000	      4.94744357	      1.12613437	     -5.46392468	      0.70594546	      0.91082393	      0.04888593	     16.65576842	     -0.13916210	     -0.01295169	     -8.31510900	     -4.49455609	      4.22056059	     -8.45886195	      1.02915183	    -11.88731903	    -24.37308338	     14.42823259	     -2.76382217	     -9.54768123	     -5.48090937	     -4.08670476
      3.79000000	      4.96215086	      0.97934220	     -5.30181935	      0.71383412	      0.90989948	      0.05077242	     16.68680011	      0.05839799	     -0.02887828	     -9.27652261	     -4.90958741	      3.98923495	     -8.61085267	      0.71557414	    -11.54435933	    -25.18144253	     14.46243080	     -2.81372136	     -9.49372053	     -5.25701604	     -4.05642675
      3.80000000	      4.97322521	      0.75761153	     -5.13562745	      0.72175110	      0.90912800	      0.05277273	     16.69141117	      0.35171074	     -0.18791572	    -10.23364227	     -5.45183301	      3.64852024	     -8.70271981	      0.31001133	    -11.21938584	    -26.10308505	     14.42653172	     -2.90104692	     -9.43461686	     -4.95417863	     -4.01697907
      3.81000000	      4.98344113	      0.44437584	     -4.97517635	      0.72965152	      0.90854615	      0.05492281	     16.64687197	      0.76302315	     -0.44785931	    -11.11668591	     -6.09731415	      3.24133423	     -8.71398022	     -0.20688131	    -10.91480031	    -27.18258979	     14.27739648	     -3.03118429	     -9.37541253	     -4.56285631	     -3.96210936
      3.82000000	      4.99040292	      0.05273971	     -4.82516512	      0.73751939	      0.90819115	      0.05719968	     16.55732304	      1.27703169	     -0.73602138	    -11.91982599	     -6.77391543	      2.80385040	     -8.64292863	     -0.82085266	    -10.65109541	    -28.40158898	     13.95551208	     -3.20500853	     -9.31331722	     -4.09442335	     -3.89189995
      3.83000000	      4.99965470	     -0.37795280	     -4.66625864	      0.74525254	      0.90804452	      0.05956442	     16.41048042	      1.84207376	     -1.04289767	    -12.61181882	     -7.39448850	      2.24503803	     -8.43466987	     -1.51112372	    -10.45193930	    -29.85318363	     13.52602815	     -3.44769678	     -9.27010113	     -3.60432409	     -3.80271155
      3.84000000	      5.00755636	     -0.86016976	     -4.52612892	      0.75290603	      0.90813852	      0.06199081	     16.21031052	      2.47053020	     -1.31057260	    -13.20950086	     -7.90426987	      1.72149054	     -8.12088091	     -2.27209879	    -10.30030538	    -31.46496363	     12.85430201	     -3.73584881	     -9.22693315	     -3.06025130	     -3.69659505
      3.85000000	      5.01722874	     -1.33880735	     -4.39011519	      0.76044142	      0.90844882	      0.06443705	     15.95745165	      3.09068143	     -1.57062054	    -13.71126161	     -8.21342973	      1.20575258	     -7.68276312	     -3.05804292	    -10.20185032	    -33.25235547	     11.93684350	     -4.08801888	     -9.18966768	     -2.53387619	     -3.55723223
      3.86000000	      5.05940734	     -1.83987997	     -4.26525345	      0.76784688	      0.90901862	      0.06688222	     15.60467268	      3.72355193	     -1.80058425	    -14.09063310	     -8.46381261	      0.98743657	     -7.16991551	     -3.89473328	    -10.15832768	    -35.18191392	     10.78932006	     -4.33376971	     -9.19833614	     -1.99132595	     -3.38820089
      3.87000000	      5.10499350	     -2.30694297	     -4.12609620	      0.77507364	      0.90974159	      0.06926725	     15.20872550	      4.30151827	     -2.05925476	    -14.38724369	     -8.53516678	      0.80577909	     -6.52765918	     -4.73307090	    -10.14390945	    -37.26456175	      9.45506028	     -4.59628919	     -9.21956028	     -1.49397963	     -3.23606779
      3.88000000	      5.16095744	     -2.73584382	     -3.98084407	      0.78211786	      0.91061140	      0.07159366	     14.76410826	      4.82390565	     -2.32462081	    -14.60115995	     -8.49267741	      0.72604282	     -5.78661617	     -5.55893727	    -10.12959815	    -39.44663402	      7.95209198	     -4.80002256	     -9.26049180	     -1.04710542	     -3.07710774
      3.89000000	      5.21759578	     -3.12470481	     -3.82137697	      0.78896196	      0.91157211	      0.07386055	     14.28769202	      5.29361947	     -2.59062875	    -14.73938437	     -8.36501819	      0.73764681	     -4.94258254	     -6.37014839	    -10.09156372	    -41.70630807	      6.35393572	     -4.90805564	     -9.31062673	     -0.65430353	     -2.92520062
      3.90000000	      5.27771909	     -3.46891188	     -3.64961681	      0.79560040	      0.91259049	      0.07604279	     13.78904821	      5.70883543	     -2.84838597	    -14.81958662	     -8.18164429	      0.81458448	     -4.01661183	     -7.14736811	    -10.00441805	    -44.00527107	      4.71988139	     -4.89088775	     -9.37317815	     -0.31556020	     -2.76873363
      3.91000000	      5.32904076	     -3.76821470	     -3.45959274	      0.80203097	      0.91360414	      0.07815464	     13.29229182	      6.07553547	     -3.09985454	    -14.85997206	     -7.94945975	      0.92526978	     -3.00707088	     -7.88574931	     -9.85284871	    -46.31942447	      3.12507688	     -4.73974826	     -9.43328627	     -0.03495447	     -2.62263051
      3.92000000	      5.37365012	     -4.01504944	     -3.25594658	      0.80825535	      0.91458091	      0.08018008	     12.80751718	      6.38887571	     -3.33886898	    -14.88087633	     -7.66776133	      1.03704081	     -1.93668208	     -8.56106729	     -9.63164141	    -48.61210430	      1.63088252	     -4.45860742	     -9.49140794	      0.18194262	     -2.48002228
      3.93000000	      5.40920121	     -4.21392212	     -3.04197782	      0.81427236	      0.91549020	      0.08211858	     12.34473621	      6.65554158	     -3.57224966	    -14.89504472	     -7.34307357	      1.12090438	     -0.81959699	     -9.16885987	     -9.34400287	    -50.85576657	      0.27644652	     -4.05293556	     -9.54602131	      0.34239697	     -2.34050881
